HIERARCHY
ROOT hips
{
	OFFSET -0.003675 0.299928 -0.021708
	CHANNELS 6 Xposition Yposition Zposition Xrotation Yrotation Zrotation
	JOINT LowerBack
	{
		OFFSET 0.000919 0.177588 0.009275
		CHANNELS 3 Xrotation Yrotation Zrotation
		JOINT spine
		{
			OFFSET 0.000919 0.177588 0.009275
			CHANNELS 3 Xrotation Yrotation Zrotation
			JOINT chest
			{
				OFFSET 0.000456 0.100015 0.004638
				CHANNELS 3 Xrotation Yrotation Zrotation
				JOINT neck
				{
					OFFSET 0.000456 0.100015 0.004638
					CHANNELS 3 Xrotation Yrotation Zrotation
					JOINT head
					{
						OFFSET 0.000924 0.155147 0.009274
						CHANNELS 6 Xposition Yposition Zposition Xrotation Yrotation Zrotation
						End Site
						{
							OFFSET 0.000000 0.153400 0.000000
						}
					}
				}
				JOINT shoulder.L
				{
					OFFSET 0.019937 0.078966 0.057518
					CHANNELS 6 Xposition Yposition Zposition Yrotation Xrotation Zrotation
					JOINT upper_arm.L
					{
						OFFSET 0.177024 -0.020465 -0.095062
						CHANNELS 6 Xposition Yposition Zposition Xrotation Yrotation Zrotation
						JOINT forearm.L
						{
							OFFSET 0.247100 -0.135500 -0.061800
							CHANNELS 3 Xrotation Yrotation Zrotation
							JOINT hand.L
							{
								OFFSET 0.217000 -0.143000 0.039300
								CHANNELS 3 Xrotation Yrotation Zrotation
								JOINT palm.01.L
								{
									OFFSET 0.021770 -0.038291 0.012954
									CHANNELS 6 Xposition Yposition Zposition Yrotation Xrotation Zrotation
									JOINT f_index.01.L
									{
										OFFSET 0.053215 -0.044137 0.008236
										CHANNELS 3 Xrotation Yrotation Zrotation
										JOINT f_index.02.L
										{
											OFFSET 0.036108 -0.024723 -0.010656
											CHANNELS 3 Xrotation Yrotation Zrotation
											JOINT f_index.03.L
											{
												OFFSET 0.021342 -0.014948 -0.010846
												CHANNELS 3 Xrotation Yrotation Zrotation
												End Site
												{
													OFFSET 0.015600 -0.009860 -0.013421
												}
											}
										}
									}
									JOINT thumb.01.L
									{
										OFFSET -0.009090 -0.002348 -0.024223
										CHANNELS 6 Xposition Yposition Zposition Xrotation Yrotation Zrotation
										JOINT thumb.02.L
										{
											OFFSET 0.019713 -0.035076 -0.011120
											CHANNELS 3 Xrotation Yrotation Zrotation
											JOINT thumb.03.L
											{
												OFFSET 0.024877 -0.021748 -0.005176
												CHANNELS 3 Xrotation Yrotation Zrotation
												End Site
												{
													OFFSET 0.016125 -0.013029 -0.001569
												}
											}
										}
									}
								}
								JOINT palm.02.L
								{
									OFFSET 0.032823 -0.025104 0.012281
									CHANNELS 6 Xposition Yposition Zposition Yrotation Xrotation Zrotation
									JOINT f_middle.01.L
									{
										OFFSET 0.055723 -0.038469 0.008037
										CHANNELS 3 Xrotation Yrotation Zrotation
										JOINT f_middle.02.L
										{
											OFFSET 0.038167 -0.027473 -0.015582
											CHANNELS 3 Xrotation Yrotation Zrotation
											JOINT f_middle.03.L
											{
												OFFSET 0.021707 -0.016587 -0.017037
												CHANNELS 3 Xrotation Yrotation Zrotation
												End Site
												{
													OFFSET 0.014112 -0.010584 -0.014294
												}
											}
										}
									}
								}
								JOINT palm.03.L
								{
									OFFSET 0.039230 -0.011402 0.008390
									CHANNELS 6 Xposition Yposition Zposition Yrotation Xrotation Zrotation
									JOINT f_ring.01.L
									{
										OFFSET 0.061796 -0.031470 0.007910
										CHANNELS 3 Xrotation Yrotation Zrotation
										JOINT f_ring.02.L
										{
											OFFSET 0.033092 -0.023401 -0.019127
											CHANNELS 3 Xrotation Yrotation Zrotation
											JOINT f_ring.03.L
											{
												OFFSET 0.021392 -0.015362 -0.017824
												CHANNELS 3 Xrotation Yrotation Zrotation
												End Site
												{
													OFFSET 0.008670 -0.007297 -0.014686
												}
											}
										}
									}
								}
								JOINT palm.04.L
								{
									OFFSET 0.043417 0.002450 0.002889
									CHANNELS 6 Xposition Yposition Zposition Yrotation Xrotation Zrotation
									JOINT f_pinky.01.L
									{
										OFFSET 0.069986 -0.026156 0.003627
										CHANNELS 3 Xrotation Yrotation Zrotation
										JOINT f_pinky.02.L
										{
											OFFSET 0.018520 -0.012813 -0.016429
											CHANNELS 3 Xrotation Yrotation Zrotation
											JOINT f_pinky.03.L
											{
												OFFSET 0.013822 -0.009796 -0.014947
												CHANNELS 3 Xrotation Yrotation Zrotation
												End Site
												{
													OFFSET 0.007238 -0.006103 -0.011657
												}
											}
										}
									}
								}
							}
						}
					}
				}
				JOINT shoulder.R
				{
					OFFSET -0.016662 0.078957 0.057696
					CHANNELS 6 Xposition Yposition Zposition Yrotation Xrotation Zrotation
					JOINT upper_arm.R
					{
						OFFSET -0.176972 -0.020537 -0.095144
						CHANNELS 6 Xposition Yposition Zposition Xrotation Yrotation Zrotation
						JOINT forearm.R
						{
							OFFSET -0.247100 -0.135500 -0.061800
							CHANNELS 3 Xrotation Yrotation Zrotation
							JOINT hand.R
							{
								OFFSET -0.217000 -0.143000 0.039300
								CHANNELS 3 Xrotation Yrotation Zrotation
								JOINT palm.01.R
								{
									OFFSET -0.021773 -0.038278 0.012988
									CHANNELS 6 Xposition Yposition Zposition Yrotation Xrotation Zrotation
									JOINT f_index.01.R
									{
										OFFSET -0.053212 -0.044139 0.008249
										CHANNELS 3 Xrotation Yrotation Zrotation
										JOINT f_index.02.R
										{
											OFFSET -0.036049 -0.024835 -0.010634
											CHANNELS 3 Xrotation Yrotation Zrotation
											JOINT f_index.03.R
											{
												OFFSET -0.021371 -0.014881 -0.010866
												CHANNELS 3 Xrotation Yrotation Zrotation
												End Site
												{
													OFFSET -0.015584 -0.009883 -0.013422
												}
											}
										}
									}
									JOINT thumb.01.R
									{
										OFFSET 0.009113 -0.002381 -0.024211
										CHANNELS 6 Xposition Yposition Zposition Xrotation Yrotation Zrotation
										JOINT thumb.02.R
										{
											OFFSET -0.019694 -0.035097 -0.011088
											CHANNELS 3 Xrotation Yrotation Zrotation
											JOINT thumb.03.R
											{
												OFFSET -0.024867 -0.021762 -0.005168
												CHANNELS 3 Xrotation Yrotation Zrotation
												End Site
												{
													OFFSET -0.016120 -0.013036 -0.001565
												}
											}
										}
									}
								}
								JOINT palm.02.R
								{
									OFFSET -0.032828 -0.025095 0.012286
									CHANNELS 6 Xposition Yposition Zposition Yrotation Xrotation Zrotation
									JOINT f_middle.01.R
									{
										OFFSET -0.055721 -0.038472 0.008040
										CHANNELS 3 Xrotation Yrotation Zrotation
										JOINT f_middle.02.R
										{
											OFFSET -0.038101 -0.027593 -0.015557
											CHANNELS 3 Xrotation Yrotation Zrotation
											JOINT f_middle.03.R
											{
												OFFSET -0.021730 -0.016530 -0.017054
												CHANNELS 3 Xrotation Yrotation Zrotation
												End Site
												{
													OFFSET -0.014096 -0.010608 -0.014293
												}
											}
										}
									}
								}
								JOINT palm.03.R
								{
									OFFSET -0.039192 -0.011488 0.008390
									CHANNELS 6 Xposition Yposition Zposition Yrotation Xrotation Zrotation
									JOINT f_ring.01.R
									{
										OFFSET -0.061839 -0.031387 0.007876
										CHANNELS 3 Xrotation Yrotation Zrotation
										JOINT f_ring.02.R
										{
											OFFSET -0.033068 -0.023437 -0.019125
											CHANNELS 3 Xrotation Yrotation Zrotation
											JOINT f_ring.03.R
											{
												OFFSET -0.021371 -0.015393 -0.017822
												CHANNELS 3 Xrotation Yrotation Zrotation
												End Site
												{
													OFFSET -0.008654 -0.007321 -0.014684
												}
											}
										}
									}
								}
								JOINT palm.04.R
								{
									OFFSET -0.043421 0.002443 0.002845
									CHANNELS 6 Xposition Yposition Zposition Yrotation Xrotation Zrotation
									JOINT f_pinky.01.R
									{
										OFFSET -0.069983 -0.026169 0.003599
										CHANNELS 3 Xrotation Yrotation Zrotation
										JOINT f_pinky.02.R
										{
											OFFSET -0.018501 -0.012842 -0.016428
											CHANNELS 3 Xrotation Yrotation Zrotation
											JOINT f_pinky.03.R
											{
												OFFSET -0.013806 -0.009821 -0.014946
												CHANNELS 3 Xrotation Yrotation Zrotation
												End Site
												{
													OFFSET -0.007226 -0.006121 -0.011655
												}
											}
										}
									}
								}
							}
						}
					}
				}
			}
		}
	}
	JOINT pelvis.L
	{
		OFFSET 0.000000 0.000000 0.000000
		CHANNELS 6 Xposition Yposition Zposition Xrotation Yrotation Zrotation
		JOINT thigh.L
		{
			OFFSET 0.101675 0.001054 -0.000000
			CHANNELS 3 Xrotation Yrotation Zrotation
			JOINT shin.L
			{
				OFFSET 0.000000 -0.534800 0.041000
				CHANNELS 3 Xrotation Yrotation Zrotation
				JOINT foot.L
				{
					OFFSET 0.000000 -0.452000 -0.044800
					CHANNELS 3 Xrotation Yrotation Zrotation
					JOINT toe.L
					{
						OFFSET -0.000000 -0.068500 0.109600
						CHANNELS 3 Xrotation Yrotation Zrotation
						End Site
						{
							OFFSET -0.000000 0.000000 0.067200
						}
					}
				}
				JOINT heel.L
				{
					OFFSET 0.000000 -0.452000 -0.044800
					CHANNELS 3 Xrotation Yrotation Zrotation
					JOINT heel.02.L
					{
						OFFSET -0.038000 -0.085200 0.016200
						CHANNELS 6 Xposition Yposition Zposition Xrotation Yrotation Zrotation
						End Site
						{
							OFFSET 0.080000 -0.000000 0.000000
						}
					}
				}
			}
		}
	}
	JOINT pelvis.R
	{
		OFFSET 0.000000 0.000000 0.000000
		CHANNELS 6 Xposition Yposition Zposition Xrotation Yrotation Zrotation
		JOINT thigh.R
		{
			OFFSET -0.094325 0.001054 0.000000
			CHANNELS 3 Xrotation Yrotation Zrotation
			JOINT shin.R
			{
				OFFSET 0.000000 -0.534800 0.041000
				CHANNELS 3 Xrotation Yrotation Zrotation
				JOINT foot.R
				{
					OFFSET 0.000000 -0.452000 -0.044800
					CHANNELS 3 Xrotation Yrotation Zrotation
					JOINT toe.R
					{
						OFFSET -0.000000 -0.068500 0.109600
						CHANNELS 3 Xrotation Yrotation Zrotation
						End Site
						{
							OFFSET -0.000000 0.000000 0.067200
						}
					}
				}
				JOINT heel.R
				{
					OFFSET 0.000000 -0.452000 -0.044800
					CHANNELS 3 Xrotation Yrotation Zrotation
					JOINT heel.02.R
					{
						OFFSET 0.038000 -0.085200 0.016200
						CHANNELS 6 Xposition Yposition Zposition Xrotation Yrotation Zrotation
						End Site
						{
							OFFSET -0.080000 0.000000 -0.000000
						}
					}
				}
			}
		}
	}
}
MOTION
Frames: 4
Frame Time: 0.041667
-0.017225 0.221819 -0.002409 -63.683345 4.492440 93.323532 -0.000000 0.000003 -0.000001 -0.000001 0.000003 -0.000000 0.000000 0.000003 -0.000000 0.000001 0.000001 -0.000000 0.000924 0.155148 0.009274 3.058341 -0.002266 -6.069042 0.019937 0.078966 0.057518 -39.170537 5.337338 41.185016 0.177025 -0.020465 -0.095062 -16.654446 16.591600 -64.636197 -53.998943 14.247709 -73.764527 -0.000004 0.000004 0.000004 0.021770 -0.038291 0.012954 0.000003 -0.000004 0.000001 0.000001 -0.000006 -0.000001 0.000003 -0.000002 0.000006 0.000002 0.000000 0.000003 -0.009090 -0.002348 -0.024224 0.000005 -0.000003 -0.000003 -0.000003 0.000003 -0.000004 0.000002 0.000001 -0.000002 0.032823 -0.025104 0.012281 0.000004 -0.000003 0.000005 -0.000001 0.000001 -0.000003 0.000001 -0.000003 -0.000001 -0.000004 0.000000 -0.000004 0.039230 -0.011402 0.008390 0.000001 -0.000002 0.000001 0.000006 -0.000000 -0.000002 -0.000004 0.000005 0.000005 -0.000000 -0.000002 0.000003 0.043417 0.002450 0.002889 0.000001 -0.000002 -0.000005 -0.000000 -0.000003 -0.000002 0.000004 0.000005 0.000001 -0.000003 -0.000004 0.000000 -0.016662 0.078957 0.057696 -38.497750 9.504681 -23.092812 -0.176972 -0.020537 -0.095144 -28.857310 1.926689 32.890530 -65.736500 8.934480 51.825918 -0.000001 0.000000 0.000000 -0.021773 -0.038278 0.012988 0.000002 -0.000001 0.000002 -0.000002 0.000001 0.000001 -0.000004 -0.000000 0.000001 -0.000003 -0.000001 -0.000000 0.009113 -0.002381 -0.024212 -0.000000 0.000000 -0.000001 0.000002 0.000001 0.000000 0.000001 -0.000000 -0.000001 -0.032828 -0.025095 0.012286 0.000002 0.000000 0.000002 0.000001 -0.000001 0.000002 -0.000002 0.000003 -0.000000 0.000000 0.000006 -0.000007 -0.039192 -0.011488 0.008390 0.000001 0.000002 0.000005 0.000000 0.000005 -0.000002 -0.000000 -0.000000 -0.000000 0.000001 -0.000001 0.000001 -0.043421 0.002443 0.002845 0.000000 0.000000 0.000002 -0.000004 0.000004 -0.000001 -0.000004 0.000000 0.000002 0.000000 0.000000 0.000002 0.000000 0.000000 -0.000000 -2.059433 -0.630043 6.126745 4.081027 0.837165 11.043736 13.346685 -1.670519 17.114282 0.000002 0.000000 -0.000004 -0.000003 0.000000 0.000000 0.000003 -0.000004 0.000000 -0.038000 -0.085200 0.016200 -0.000002 -0.000001 0.000000 0.000000 0.000000 -0.000000 -2.036764 -0.627374 7.361182 7.184825 0.741718 9.887491 17.886373 -1.041845 10.572890 0.000000 -0.000001 -0.000002 0.000000 0.000001 -0.000003 0.000003 -0.000001 -0.000007 0.038000 -0.085200 0.016200 -0.000000 0.000002 -0.000001 
-0.014159 0.220632 -0.002424 -65.382266 3.701735 94.405113 -0.000001 -0.000000 -0.000001 0.000000 -0.000000 0.000000 0.000000 -0.000000 -0.000001 -0.000000 0.000001 -0.000001 0.000924 0.155147 0.009274 3.713804 -0.004815 -7.680781 0.019937 0.078966 0.057518 -41.884035 8.407718 47.553946 0.177024 -0.020465 -0.095062 -19.051969 18.610908 -71.843379 -36.896385 31.303146 -109.621743 -0.000001 0.000001 0.000001 0.021770 -0.038291 0.012954 0.000000 0.000002 0.000003 -0.000000 -0.000000 -0.000000 -0.000003 -0.000000 0.000005 -0.000000 0.000004 0.000002 -0.009090 -0.002348 -0.024223 -0.000002 -0.000000 -0.000001 0.000001 -0.000001 0.000001 -0.000001 0.000000 -0.000002 0.032823 -0.025104 0.012281 0.000000 0.000003 0.000007 0.000001 0.000002 -0.000007 -0.000002 -0.000003 -0.000001 0.000001 -0.000003 0.000001 0.039230 -0.011402 0.008390 0.000001 0.000001 0.000006 -0.000001 -0.000000 -0.000002 -0.000003 0.000005 0.000005 0.000001 0.000000 0.000003 0.043417 0.002450 0.002889 0.000000 -0.000000 0.000000 0.000000 -0.000003 0.000001 -0.000001 0.000001 0.000001 0.000001 0.000000 -0.000002 -0.016662 0.078956 0.057696 -40.766022 11.629808 -27.511305 -0.176972 -0.020537 -0.095144 -30.024528 -0.932050 38.440414 -53.865228 -49.340457 98.051252 0.000000 0.000002 -0.000000 -0.021773 -0.038278 0.012988 0.000000 -0.000003 -0.000002 -0.000002 -0.000001 0.000000 -0.000004 -0.000003 -0.000008 -0.000000 0.000002 -0.000001 0.009114 -0.002381 -0.024212 -0.000003 -0.000003 0.000000 -0.000001 -0.000005 0.000004 0.000001 -0.000002 -0.000006 -0.032828 -0.025095 0.012286 -0.000001 0.000002 -0.000003 0.000004 -0.000000 -0.000005 -0.000000 -0.000001 -0.000002 -0.000001 -0.000000 -0.000002 -0.039192 -0.011488 0.008390 -0.000002 0.000001 -0.000000 0.000002 0.000001 -0.000002 0.000003 -0.000002 -0.000000 -0.000002 0.000001 -0.000001 -0.043421 0.002443 0.002845 -0.000002 0.000001 0.000000 -0.000005 0.000004 -0.000003 -0.000000 -0.000005 0.000002 -0.000002 -0.000000 0.000003 -0.000000 0.000000 -0.000000 -1.968989 -0.678997 6.804440 5.756098 0.627570 8.175668 10.819797 -1.592627 16.293080 0.000000 -0.000001 -0.000004 0.000003 0.000000 0.000003 0.000003 0.000002 -0.000002 -0.038000 -0.085200 0.016200 -0.000002 0.000003 0.000004 -0.000000 0.000000 -0.000000 -1.949349 -0.676444 8.038868 12.440201 0.699905 9.699573 10.032643 -0.987567 10.016007 0.000000 0.000002 -0.000003 0.000003 -0.000004 0.000003 0.000005 -0.000002 -0.000002 0.038000 -0.085200 0.016200 -0.000006 0.000002 0.000001 
-0.012238 0.216397 0.002320 -3.678844 0.271885 87.597654 -0.000001 -0.000000 -0.000000 -0.000000 0.000001 0.000000 -0.000001 0.000000 -0.000000 -0.000000 0.000000 -0.000000 0.000924 0.155147 0.009274 10.523038 -0.015921 -4.269910 0.019937 0.078966 0.057518 -11.855523 5.371741 47.165752 0.177024 -0.020465 -0.095062 -53.412458 -8.546733 -34.518738 47.634446 -23.288864 -259.153278 -0.000001 0.000002 0.000001 0.021770 -0.038291 0.012954 0.000002 0.000001 -0.000001 -0.000000 0.000001 -0.000000 0.000000 0.000001 0.000007 -0.000000 -0.000000 0.000002 -0.009090 -0.002348 -0.024224 -0.000000 -0.000002 0.000001 -0.000002 0.000002 0.000001 -0.000001 -0.000001 0.000003 0.032823 -0.025104 0.012281 -0.000001 -0.000000 0.000005 0.000001 -0.000001 -0.000005 -0.000002 0.000001 0.000003 -0.000000 0.000003 0.000001 0.039230 -0.011402 0.008390 -0.000002 0.000002 0.000003 0.000003 -0.000000 -0.000002 0.000004 0.000002 0.000003 -0.000002 -0.000005 0.000003 0.043417 0.002450 0.002889 -0.000002 -0.000001 -0.000005 -0.000001 -0.000005 -0.000000 0.000003 -0.000003 0.000001 0.000004 -0.000002 -0.000003 -0.016662 0.078956 0.057696 -11.646930 4.442073 -32.598741 -0.176972 -0.020537 -0.095144 -43.130203 1.615088 37.659115 -123.916762 -143.450037 48.110353 0.000003 -0.000001 0.000000 -0.021773 -0.038278 0.012988 -0.000003 0.000001 -0.000002 -0.000001 0.000003 -0.000001 0.000001 -0.000002 -0.000003 0.000002 0.000001 -0.000000 0.009113 -0.002381 -0.024211 0.000001 -0.000001 0.000002 0.000001 0.000001 0.000004 0.000000 0.000001 -0.000001 -0.032828 -0.025095 0.012286 0.000002 -0.000001 0.000001 -0.000000 0.000003 -0.000004 0.000001 0.000002 -0.000004 -0.000002 0.000007 -0.000000 -0.039192 -0.011488 0.008390 -0.000001 -0.000000 0.000003 0.000002 0.000002 -0.000005 0.000001 0.000000 0.000002 -0.000005 0.000003 0.000005 -0.043421 0.002443 0.002845 0.000000 -0.000001 0.000000 -0.000003 0.000004 -0.000001 0.000002 0.000000 0.000000 -0.000003 0.000002 0.000002 -0.000000 0.000000 -0.000000 -1.946186 0.373766 -5.299472 27.996788 0.163795 0.868396 5.553725 -0.240434 2.428539 0.000002 -0.000000 -0.000001 0.000002 0.000000 -0.000000 0.000003 0.000000 -0.000000 -0.038000 -0.085200 0.016200 0.000001 -0.000001 -0.000000 -0.000000 0.000000 -0.000000 -1.891688 0.369277 -4.065638 26.028230 0.160207 3.542832 13.387078 -0.329268 3.324297 -0.000003 0.000000 0.000000 0.000002 0.000000 0.000000 -0.000002 0.000000 -0.000000 0.038000 -0.085200 0.016200 -0.000003 -0.000000 0.000000 
-0.012735 0.215284 0.002028 -7.775184 1.154183 86.834927 -0.000001 -0.000000 -0.000000 -0.000001 -0.000000 -0.000000 0.000000 -0.000000 -0.000000 0.000000 -0.000000 -0.000000 0.000924 0.155148 0.009274 6.141728 -0.007400 -0.929480 0.019937 0.078966 0.057518 -18.723633 5.540811 48.538497 0.177024 -0.020465 -0.095062 -57.059499 -11.955900 -33.018337 37.500105 -19.356345 -266.008438 -0.000002 0.000001 -0.000001 0.021770 -0.038291 0.012954 -0.000000 0.000000 -0.000002 -0.000001 0.000001 0.000003 -0.000002 0.000001 0.000005 -0.000002 0.000000 0.000003 -0.009090 -0.002348 -0.024224 -0.000001 -0.000003 0.000004 0.000001 -0.000001 -0.000001 -0.000002 0.000001 0.000001 0.032823 -0.025104 0.012281 -0.000002 0.000004 0.000004 0.000002 0.000001 -0.000003 -0.000001 0.000001 -0.000006 0.000000 -0.000001 -0.000003 0.039230 -0.011402 0.008390 -0.000001 0.000001 0.000004 0.000003 0.000006 -0.000004 0.000001 0.000003 -0.000001 -0.000001 -0.000002 0.000003 0.043417 0.002450 0.002889 -0.000001 0.000003 -0.000003 -0.000001 -0.000003 -0.000000 -0.000001 0.000004 -0.000000 -0.000002 0.000002 -0.000003 -0.016662 0.078957 0.057696 -16.730313 5.135117 -32.179914 -0.176972 -0.020537 -0.095144 -46.321889 5.527077 35.419336 -120.376880 -170.348060 59.976451 0.000002 0.000002 0.000005 -0.021773 -0.038278 0.012988 -0.000001 -0.000002 -0.000002 0.000002 -0.000001 0.000002 0.000001 -0.000002 -0.000001 -0.000000 0.000002 0.000005 0.009113 -0.002381 -0.024211 0.000003 -0.000006 -0.000000 0.000003 -0.000002 0.000000 0.000001 0.000001 -0.000004 -0.032828 -0.025095 0.012286 0.000001 0.000001 -0.000001 -0.000000 0.000002 -0.000004 -0.000000 0.000003 -0.000005 -0.000003 0.000002 -0.000005 -0.039192 -0.011488 0.008390 0.000001 0.000001 -0.000004 0.000000 0.000001 0.000000 -0.000000 0.000002 -0.000003 -0.000003 -0.000001 -0.000000 -0.043421 0.002443 0.002845 -0.000002 0.000002 0.000000 -0.000000 0.000002 -0.000001 0.000000 -0.000001 -0.000000 0.000000 -0.000000 -0.000003 -0.000000 0.000000 -0.000000 -2.007077 0.193589 -3.189787 26.202105 0.319872 2.999907 9.309783 -0.219240 2.214460 0.000002 -0.000001 0.000000 0.000002 0.000000 0.000000 0.000000 -0.000001 0.000001 -0.038000 -0.085200 0.016200 -0.000002 -0.000000 0.000000 -0.000000 0.000000 0.000000 -1.957366 0.191336 -1.955773 23.906854 0.248959 4.563024 13.794716 -0.477190 4.820577 -0.000009 -0.000000 0.000000 -0.000002 0.000000 0.000000 0.000002 -0.000001 -0.000000 0.038000 -0.085200 0.016200 0.000002 0.000000 -0.000000 
